<svg id="visual" viewBox="0 0 900 600" width="900" height="600" xmlns="http://www.w3.org/2000/svg" xmlns:xlink="http://www.w3.org/1999/xlink" version="1.1"><rect x="0" y="0" width="900" height="600" fill="#f8f9ff"></rect><defs><linearGradient id="grad1_0" x1="33.3%" y1="100%" x2="100%" y2="0%"><stop offset="20%" stop-color="#f8f9ff" stop-opacity="1"></stop><stop offset="80%" stop-color="#f8f9ff" stop-opacity="1"></stop></linearGradient></defs><defs><linearGradient id="grad2_0" x1="0%" y1="100%" x2="66.7%" y2="0%"><stop offset="20%" stop-color="#f8f9ff" stop-opacity="1"></stop><stop offset="80%" stop-color="#f8f9ff" stop-opacity="1"></stop></linearGradient></defs><g transform="translate(900, 600)"><path d="M-297.5 0C-293.7 -25.9 -290 -51.8 -280.1 -75.1C-270.2 -98.3 -254.1 -118.8 -236.4 -136.5C-218.8 -154.2 -199.6 -168.9 -181 -181C-162.5 -193.1 -144.6 -202.6 -128.5 -222.6C-112.4 -242.6 -98.1 -273.1 -77 -287.3C-55.9 -301.6 -27.9 -299.5 0 -297.5L0 0Z" fill="#C2A3F8"></path></g><g transform="translate(0, 0)"><path d="M297.5 0C294.8 25.2 292.2 50.5 287.3 77C282.5 103.5 275.4 131.3 254.6 147C233.8 162.7 199.3 166.3 175.4 175.4C151.4 184.5 138.1 199.1 122 211.3C105.9 223.5 87.1 233.3 66.3 247.3C45.5 261.2 22.7 279.3 0 297.5L0 0Z" fill="#C2A3F8"></path></g></svg>