<?xml version="1.0" encoding="UTF-8" standalone="no"?>
<svg
   version="1.0"
   width="364.71487pt"
   height="364.52948pt"
   viewBox="0 0 364.71487 364.52948"
   preserveAspectRatio="xMidYMid"
   id="svg60"
   sodipodi:docname="LogoPsirisWhiteIcon.svg"
   inkscape:version="1.2.2 (732a01da63, 2022-12-09)"
   xmlns:inkscape="http://www.inkscape.org/namespaces/inkscape"
   xmlns:sodipodi="http://sodipodi.sourceforge.net/DTD/sodipodi-0.dtd"
   xmlns="http://www.w3.org/2000/svg"
   xmlns:svg="http://www.w3.org/2000/svg">
  <defs
     id="defs64" />
  <sodipodi:namedview
     id="namedview62"
     pagecolor="#ffffff"
     bordercolor="#000000"
     borderopacity="0.25"
     inkscape:showpageshadow="2"
     inkscape:pageopacity="0.0"
     inkscape:pagecheckerboard="0"
     inkscape:deskcolor="#d1d1d1"
     inkscape:document-units="pt"
     showgrid="false"
     inkscape:zoom="0.60179045"
     inkscape:cx="771.03251"
     inkscape:cy="244.27107"
     inkscape:window-width="2560"
     inkscape:window-height="1009"
     inkscape:window-x="-8"
     inkscape:window-y="-8"
     inkscape:window-maximized="1"
     inkscape:current-layer="g58" />
  <metadata
     id="metadata34">
Created by potrace 1.16, written by Peter Selinger 2001-2019
</metadata>
  <g
     transform="matrix(0.1,0,0,-0.1,-176.11349,431.64296)"
     fill="#000000"
     stroke="none"
     id="g58">
    <path
       d="m 3390,4310 c -227,-28 -442,-94 -640,-196 -165,-85 -290,-175 -427,-308 -265,-256 -428,-534 -512,-878 -43,-177 -55,-291 -48,-491 7,-228 41,-403 112,-587 219,-567 692,-985 1277,-1129 177,-43 291,-55 491,-48 228,7 403,41 587,112 640,247 1090,823 1171,1498 14,122 7,410 -14,522 -75,398 -244,714 -533,996 -270,262 -587,425 -954,490 -132,23 -393,33 -510,19 z m 76,-322 c 88,-27 151,-27 243,2 230,71 482,-72 538,-306 9,-38 20,-73 25,-79 5,-6 59,-10 121,-10 107,0 115,-2 181,-34 42,-20 91,-56 126,-91 117,-117 156,-260 111,-408 -11,-39 -21,-82 -21,-97 0,-39 25,-80 65,-105 47,-29 130,-123 154,-176 34,-72 44,-169 27,-251 -25,-122 -79,-204 -178,-271 -75,-52 -82,-80 -48,-190 68,-216 -50,-447 -267,-524 -36,-12 -88,-20 -144,-22 -109,-3 -128,-17 -158,-115 -39,-127 -133,-224 -266,-273 -81,-29 -206,-29 -289,1 -75,27 -127,27 -202,0 -75,-27 -196,-30 -275,-6 -131,39 -241,148 -280,278 -30,97 -50,113 -153,115 -136,4 -213,32 -298,112 -120,112 -168,290 -118,432 22,61 25,112 10,140 -6,10 -37,38 -70,61 -128,89 -195,248 -170,403 19,117 55,171 214,314 44,39 46,70 15,174 -45,147 -6,289 110,407 35,37 81,70 126,92 67,33 74,34 182,34 62,0 116,4 121,10 5,6 16,41 25,79 20,81 59,147 126,209 116,109 267,143 417,95 z"
       id="path36"
       style="fill:#ffffff" />
    <path
       d="m 3269,3772 c -124,-41 -216,-137 -246,-258 -10,-38 -19,-71 -20,-73 -2,-3 -47,-5 -101,-5 -89,-1 -103,-4 -164,-34 -165,-81 -246,-268 -188,-438 27,-82 19,-109 -51,-159 -63,-45 -115,-116 -135,-184 -22,-71 -15,-189 14,-253 23,-52 102,-142 143,-163 14,-8 32,-28 39,-44 10,-25 9,-39 -9,-90 -25,-73 -27,-148 -5,-221 21,-71 51,-117 113,-173 66,-58 140,-87 229,-87 97,0 112,-11 140,-98 18,-57 35,-84 77,-130 74,-80 145,-114 250,-120 44,-2 92,1 108,7 l 27,11 v 260 c 0,143 -2,260 -5,260 -19,0 -94,-48 -140,-90 -58,-52 -100,-64 -146,-40 -30,16 -52,68 -45,105 13,68 171,186 290,216 l 46,11 -2,217 -3,216 h -209 -209 l -13,-52 c -21,-83 -71,-170 -133,-234 -46,-48 -63,-59 -89,-59 -49,0 -89,25 -101,63 -15,44 -2,77 49,133 40,44 80,112 80,139 0,12 -15,15 -80,15 -73,0 -83,3 -105,25 -34,33 -34,93 -1,132 22,25 32,28 105,33 l 81,5 -21,40 c -11,22 -41,60 -65,85 -49,51 -63,95 -44,139 15,37 70,65 111,56 63,-14 174,-163 210,-282 l 12,-43 h 214 213 l -2,206 -3,205 -65,22 c -85,29 -151,68 -210,126 -67,64 -78,123 -30,171 46,46 98,38 166,-26 46,-43 111,-84 134,-84 12,0 14,518 1,538 -14,23 -147,25 -212,4 z"
       id="path38"
       style="fill:#ffffff" />
    <path
       d="m 3719,3783 c -17,-3 -29,-12 -33,-26 -3,-12 -6,-136 -6,-274 0,-197 3,-253 13,-253 23,0 92,42 139,86 41,38 53,44 92,44 38,0 48,-5 71,-32 23,-27 26,-39 22,-73 -10,-72 -137,-172 -277,-216 l -55,-17 -3,-206 -2,-206 h 213 214 l 12,43 c 34,113 146,266 207,281 39,10 92,-11 109,-44 27,-53 20,-86 -34,-143 -27,-29 -58,-71 -70,-94 l -21,-43 h 65 c 38,0 78,-6 94,-15 57,-29 65,-115 14,-155 -20,-16 -41,-20 -99,-20 -60,0 -74,-3 -74,-15 0,-27 38,-93 84,-144 53,-60 61,-81 46,-126 -13,-40 -52,-65 -102,-65 -65,0 -188,162 -221,291 l -14,54 h -209 -209 l -3,-216 -2,-215 51,-13 c 139,-36 289,-155 289,-229 0,-55 -48,-102 -105,-102 -14,0 -44,18 -71,41 -57,49 -110,85 -141,94 l -23,6 v -265 -265 l 46,-7 c 67,-10 162,1 216,24 54,24 130,90 164,143 12,20 30,62 39,93 21,70 41,82 155,88 101,5 148,26 226,99 102,97 139,244 94,375 -19,56 -20,70 -9,95 6,17 24,36 38,44 41,21 120,111 143,163 29,64 36,182 14,253 -20,68 -72,139 -135,184 -70,50 -78,77 -51,159 58,170 -23,357 -188,438 -60,30 -75,33 -159,33 -51,1 -97,5 -102,10 -5,6 -16,38 -25,73 -24,95 -96,186 -186,232 -62,32 -159,46 -241,33 z"
       id="path40"
       style="fill:#ffffff" />
  </g>
</svg>
