<?xml version="1.0" encoding="UTF-8" standalone="no"?>
<svg
   version="1.0"
   width="1508.000000pt"
   height="498.000000pt"
   viewBox="0 0 1508.000000 498.000000"
   preserveAspectRatio="xMidYMid meet"
   id="svg60"
   sodipodi:docname="LogoPsirisWhite.svg"
   inkscape:version="1.2.2 (732a01da63, 2022-12-09)"
   xmlns:inkscape="http://www.inkscape.org/namespaces/inkscape"
   xmlns:sodipodi="http://sodipodi.sourceforge.net/DTD/sodipodi-0.dtd"
   xmlns="http://www.w3.org/2000/svg"
   xmlns:svg="http://www.w3.org/2000/svg">
  <defs
     id="defs64" />
  <sodipodi:namedview
     id="namedview62"
     pagecolor="#ffffff"
     bordercolor="#000000"
     borderopacity="0.25"
     inkscape:showpageshadow="2"
     inkscape:pageopacity="0.0"
     inkscape:pagecheckerboard="0"
     inkscape:deskcolor="#d1d1d1"
     inkscape:document-units="pt"
     showgrid="false"
     inkscape:zoom="0.60179045"
     inkscape:cx="1005.3333"
     inkscape:cy="332.3416"
     inkscape:window-width="2560"
     inkscape:window-height="1009"
     inkscape:window-x="-8"
     inkscape:window-y="-8"
     inkscape:window-maximized="1"
     inkscape:current-layer="g58" />
  <metadata
     id="metadata34">
Created by potrace 1.16, written by Peter Selinger 2001-2019
</metadata>
  <g
     transform="translate(0.000000,498.000000) scale(0.100000,-0.100000)"
     fill="#000000"
     stroke="none"
     id="g58">
    <path
       d="M3390 4310 c-227 -28 -442 -94 -640 -196 -165 -85 -290 -175 -427 -308 -265 -256 -428 -534 -512 -878 -43 -177 -55 -291 -48 -491 7 -228 41 -403 112 -587 219 -567 692 -985 1277 -1129 177 -43 291 -55 491 -48 228 7 403 41 587 112 640 247 1090 823 1171 1498 14 122 7 410 -14 522 -75 398 -244 714 -533 996 -270 262 -587 425 -954 490 -132 23 -393 33 -510 19z m76 -322 c88 -27 151 -27 243 2 230 71 482 -72 538 -306 9 -38 20 -73 25 -79 5 -6 59 -10 121 -10 107 0 115 -2 181 -34 42 -20 91 -56 126 -91 117 -117 156 -260 111 -408 -11 -39 -21 -82 -21 -97 0 -39 25 -80 65 -105 47 -29 130 -123 154 -176 34 -72 44 -169 27 -251 -25 -122 -79 -204 -178 -271 -75 -52 -82 -80 -48 -190 68 -216 -50 -447 -267 -524 -36 -12 -88 -20 -144 -22 -109 -3 -128 -17 -158 -115 -39 -127 -133 -224 -266 -273 -81 -29 -206 -29 -289 1 -75 27 -127 27 -202 0 -75 -27 -196 -30 -275 -6 -131 39 -241 148 -280 278 -30 97 -50 113 -153 115 -136 4 -213 32 -298 112 -120 112 -168 290 -118 432 22 61 25 112 10 140 -6 10 -37 38 -70 61 -128 89 -195 248 -170 403 19 117 55 171 214 314 44 39 46 70 15 174 -45 147 -6 289 110 407 35 37 81 70 126 92 67 33 74 34 182 34 62 0 116 4 121 10 5 6 16 41 25 79 20 81 59 147 126 209 116 109 267 143 417 95z"
       id="path36"
       style="fill:#ffffff" />
    <path
       d="M3269 3772 c-124 -41 -216 -137 -246 -258 -10 -38 -19 -71 -20 -73 -2 -3 -47 -5 -101 -5 -89 -1 -103 -4 -164 -34 -165 -81 -246 -268 -188 -438 27 -82 19 -109 -51 -159 -63 -45 -115 -116 -135 -184 -22 -71 -15 -189 14 -253 23 -52 102 -142 143 -163 14 -8 32 -28 39 -44 10 -25 9 -39 -9 -90 -25 -73 -27 -148 -5 -221 21 -71 51 -117 113 -173 66 -58 140 -87 229 -87 97 0 112 -11 140 -98 18 -57 35 -84 77 -130 74 -80 145 -114 250 -120 44 -2 92 1 108 7 l27 11 0 260 c0 143 -2 260 -5 260 -19 0 -94 -48 -140 -90 -58 -52 -100 -64 -146 -40 -30 16 -52 68 -45 105 13 68 171 186 290 216 l46 11 -2 217 -3 216 -209 0 -209 0 -13 -52 c-21 -83 -71 -170 -133 -234 -46 -48 -63 -59 -89 -59 -49 0 -89 25 -101 63 -15 44 -2 77 49 133 40 44 80 112 80 139 0 12 -15 15 -80 15 -73 0 -83 3 -105 25 -34 33 -34 93 -1 132 22 25 32 28 105 33 l81 5 -21 40 c-11 22 -41 60 -65 85 -49 51 -63 95 -44 139 15 37 70 65 111 56 63 -14 174 -163 210 -282 l12 -43 214 0 213 0 -2 206 -3 205 -65 22 c-85 29 -151 68 -210 126 -67 64 -78 123 -30 171 46 46 98 38 166 -26 46 -43 111 -84 134 -84 12 0 14 518 1 538 -14 23 -147 25 -212 4z"
       id="path38"
       style="fill:#ffffff" />
    <path
       d="M3719 3783 c-17 -3 -29 -12 -33 -26 -3 -12 -6 -136 -6 -274 0 -197 3 -253 13 -253 23 0 92 42 139 86 41 38 53 44 92 44 38 0 48 -5 71 -32 23 -27 26 -39 22 -73 -10 -72 -137 -172 -277 -216 l-55 -17 -3 -206 -2 -206 213 0 214 0 12 43 c34 113 146 266 207 281 39 10 92 -11 109 -44 27 -53 20 -86 -34 -143 -27 -29 -58 -71 -70 -94 l-21 -43 65 0 c38 0 78 -6 94 -15 57 -29 65 -115 14 -155 -20 -16 -41 -20 -99 -20 -60 0 -74 -3 -74 -15 0 -27 38 -93 84 -144 53 -60 61 -81 46 -126 -13 -40 -52 -65 -102 -65 -65 0 -188 162 -221 291 l-14 54 -209 0 -209 0 -3 -216 -2 -215 51 -13 c139 -36 289 -155 289 -229 0 -55 -48 -102 -105 -102 -14 0 -44 18 -71 41 -57 49 -110 85 -141 94 l-23 6 0 -265 0 -265 46 -7 c67 -10 162 1 216 24 54 24 130 90 164 143 12 20 30 62 39 93 21 70 41 82 155 88 101 5 148 26 226 99 102 97 139 244 94 375 -19 56 -20 70 -9 95 6 17 24 36 38 44 41 21 120 111 143 163 29 64 36 182 14 253 -20 68 -72 139 -135 184 -70 50 -78 77 -51 159 58 170 -23 357 -188 438 -60 30 -75 33 -159 33 -51 1 -97 5 -102 10 -5 6 -16 38 -25 73 -24 95 -96 186 -186 232 -62 32 -159 46 -241 33z"
       id="path40"
       style="fill:#ffffff" />
    <path
       d="M9625 3216 c-37 -16 -82 -60 -102 -101 -22 -42 -20 -125 4 -171 32 -63 84 -97 152 -102 77 -6 122 10 165 58 65 73 72 171 16 248 -51 71 -158 102 -235 68z"
       id="path42"
       style="fill:#ffffff" />
    <path
       d="M11262 3222 c-36 -11 -91 -60 -112 -102 -26 -52 -26 -122 1 -178 65 -133 268 -138 344 -8 27 47 34 122 14 173 -33 88 -150 142 -247 115z"
       id="path44"
       style="fill:#ffffff" />
    <path
       d="M7000 2619 l0 -412 -142 6 c-201 8 -277 40 -322 136 -20 43 -21 64 -24 354 l-3 307 -175 0 -174 0 0 -302 c0 -338 8 -397 62 -508 41 -84 134 -177 219 -219 106 -51 166 -62 372 -68 l187 -6 0 -243 0 -244 180 0 180 0 0 244 0 243 183 6 c208 6 263 15 366 64 190 90 302 293 288 524 -13 212 -120 384 -292 468 -114 56 -154 61 -547 61 l-358 0 0 -411z m677 76 c116 -34 168 -106 167 -230 -1 -121 -45 -187 -154 -230 -33 -13 -84 -19 -187 -23 l-143 -5 0 252 0 251 133 0 c89 0 150 -5 184 -15z"
       id="path46"
       style="fill:#ffffff" />
    <path
       d="M8720 2658 c-184 -17 -324 -115 -366 -257 -11 -38 -15 -79 -12 -136 10 -195 121 -292 403 -354 153 -34 182 -45 201 -82 18 -35 18 -53 -1 -89 -21 -41 -63 -60 -133 -60 -79 0 -121 27 -142 93 l-15 47 -174 0 -174 0 6 -60 c9 -85 46 -157 115 -222 103 -98 213 -138 378 -138 174 0 304 48 389 142 68 76 89 128 93 230 5 118 -14 176 -83 244 -72 72 -150 109 -321 149 -199 48 -224 63 -224 135 0 42 15 67 50 85 33 17 106 20 144 5 30 -11 66 -65 66 -97 0 -23 0 -23 174 -23 96 0 177 4 180 9 3 5 1 33 -4 61 -42 220 -260 346 -550 318z"
       id="path48"
       style="fill:#ffffff" />
    <path
       d="M12153 2658 c-257 -27 -406 -198 -373 -428 24 -172 140 -263 404 -320 74 -16 144 -34 155 -39 31 -17 51 -52 51 -89 0 -75 -47 -106 -151 -100 -59 3 -72 8 -99 33 -19 18 -33 43 -36 67 l-7 38 -179 0 -179 0 6 -37 c14 -84 18 -100 42 -147 53 -105 186 -199 322 -227 83 -17 271 -6 345 20 119 42 201 114 248 217 19 40 23 66 23 144 0 84 -3 102 -29 153 -52 108 -156 170 -364 219 -202 47 -237 68 -237 140 0 33 6 45 33 69 28 25 40 29 90 29 79 0 118 -25 134 -85 l12 -45 174 0 175 0 -6 56 c-23 221 -262 364 -554 332z"
       id="path50"
       style="fill:#ffffff" />
    <path
       d="M9520 2030 l0 -610 180 0 180 0 0 610 0 610 -180 0 -180 0 0 -610z"
       id="path52"
       style="fill:#ffffff" />
    <path
       d="M10170 2030 l0 -610 179 0 179 0 4 353 c5 384 8 410 65 471 53 58 166 86 268 67 32 -6 60 -10 61 -8 2 2 7 76 11 166 l8 162 -24 6 c-35 9 -150 -4 -200 -22 -57 -20 -125 -76 -154 -126 -12 -21 -25 -39 -29 -39 -5 0 -8 43 -8 95 l0 95 -180 0 -180 0 0 -610z"
       id="path54"
       style="fill:#ffffff" />
    <path
       d="M11147 2633 c-4 -3 -7 -278 -7 -610 l0 -603 185 0 185 0 0 610 0 610 -178 0 c-98 0 -182 -3 -185 -7z"
       id="path56"
       style="fill:#ffffff" />
  </g>
</svg>
